{
	"patcher" : 	{
		"fileversion" : 1,
		"appversion" : 		{
			"major" : 8,
			"minor" : 6,
			"revision" : 0,
			"architecture" : "x64",
			"modernui" : 1
		}
,
		"classnamespace" : "box",
		"rect" : [ 34.0, 87.0, 972.0, 709.0 ],
		"bglocked" : 0,
		"openinpresentation" : 0,
		"default_fontsize" : 12.0,
		"default_fontface" : 0,
		"default_fontname" : "Arial",
		"gridonopen" : 2,
		"gridsize" : [ 15.0, 15.0 ],
		"gridsnaponopen" : 1,
		"objectsnaponopen" : 1,
		"statusbarvisible" : 2,
		"toolbarvisible" : 1,
		"lefttoolbarpinned" : 0,
		"toptoolbarpinned" : 0,
		"righttoolbarpinned" : 0,
		"bottomtoolbarpinned" : 0,
		"toolbars_unpinned_last_save" : 0,
		"tallnewobj" : 0,
		"boxanimatetime" : 200,
		"enablehscroll" : 1,
		"enablevscroll" : 1,
		"devicewidth" : 0.0,
		"description" : "",
		"digest" : "",
		"tags" : "",
		"style" : "",
		"subpatcher_template" : "Show_Grid",
		"assistshowspatchername" : 0,
		"boxes" : [ 			{
				"box" : 				{
					"bubble_bgcolor" : [ 0.0, 0.0, 0.0, 1.0 ],
					"bubble_outlinecolor" : [ 0.0, 0.0, 0.0, 1.0 ],
					"fontface" : 3,
					"fontname" : "HanziPen TC",
					"fontsize" : 31.0,
					"id" : "obj-36",
					"maxclass" : "comment",
					"numinlets" : 1,
					"numoutlets" : 0,
					"patching_rect" : [ 1172.333367824554443, 57.666667938232422, 416.0, 50.0 ],
					"presentation" : 1,
					"presentation_rect" : [ 774.66668975353241, 304.000009059906006, 388.0, 50.0 ],
					"text" : "Change donut shape",
					"textcolor" : [ 0.957769274711609, 0.4859459400177, 0.712041139602661, 1.0 ]
				}

			}
, 			{
				"box" : 				{
					"bubble_bgcolor" : [ 0.0, 0.0, 0.0, 1.0 ],
					"bubble_outlinecolor" : [ 0.0, 0.0, 0.0, 1.0 ],
					"fontface" : 3,
					"fontname" : "HanziPen TC",
					"fontsize" : 22.0,
					"id" : "obj-27",
					"linecount" : 2,
					"maxclass" : "comment",
					"numinlets" : 1,
					"numoutlets" : 0,
					"patching_rect" : [ 1172.333367824554443, 57.666667938232422, 176.0, 68.0 ],
					"presentation" : 1,
					"presentation_rect" : [ 377.333344578742981, 156.000004649162292, 379.0, 37.0 ],
					"text" : "press mute button for mic only  ->",
					"textcolor" : [ 0.932496428489685, 0.380866765975952, 0.663908243179321, 1.0 ]
				}

			}
, 			{
				"box" : 				{
					"bubble_bgcolor" : [ 0.0, 0.0, 0.0, 1.0 ],
					"bubble_outlinecolor" : [ 0.0, 0.0, 0.0, 1.0 ],
					"fontface" : 3,
					"fontname" : "HanziPen TC",
					"fontsize" : 40.0,
					"id" : "obj-19",
					"maxclass" : "comment",
					"numinlets" : 1,
					"numoutlets" : 0,
					"patching_rect" : [ 1187.333367824554443, 72.666667938232422, 528.0, 63.0 ],
					"presentation" : 1,
					"presentation_rect" : [ 92.00000274181366, 370.666677713394165, 464.0, 63.0 ],
					"text" : "Sound settings",
					"textcolor" : [ 0.956483483314514, 0.362361431121826, 0.655066192150116, 1.0 ]
				}

			}
, 			{
				"box" : 				{
					"bubble_bgcolor" : [ 0.0, 0.0, 0.0, 1.0 ],
					"bubble_outlinecolor" : [ 0.0, 0.0, 0.0, 1.0 ],
					"fontface" : 3,
					"fontname" : "HanziPen TC",
					"fontsize" : 98.0,
					"id" : "obj-17",
					"maxclass" : "comment",
					"numinlets" : 1,
					"numoutlets" : 0,
					"patching_rect" : [ 1172.333367824554443, 57.666667938232422, 1175.0, 144.0 ],
					"presentation" : 1,
					"presentation_rect" : [ 40.0, 524.000015616416931, 1116.0, 144.0 ],
					"text" : "Donut Dancer",
					"textcolor" : [ 0.957769274711609, 0.4859459400177, 0.712041139602661, 1.0 ]
				}

			}
, 			{
				"box" : 				{
					"bubble_bgcolor" : [ 0.0, 0.0, 0.0, 1.0 ],
					"bubble_outlinecolor" : [ 0.0, 0.0, 0.0, 1.0 ],
					"fontface" : 3,
					"fontname" : "HanziPen TC",
					"fontsize" : 31.0,
					"id" : "obj-16",
					"maxclass" : "comment",
					"numinlets" : 1,
					"numoutlets" : 0,
					"patching_rect" : [ 1172.333367824554443, 57.666667938232422, 411.0, 50.0 ],
					"presentation" : 1,
					"presentation_rect" : [ 774.66668975353241, 226.666673421859741, 388.0, 50.0 ],
					"text" : "Change donut color",
					"textcolor" : [ 0.977032959461212, 0.471604198217392, 0.707683324813843, 1.0 ]
				}

			}
, 			{
				"box" : 				{
					"bubble_bgcolor" : [ 0.0, 0.0, 0.0, 1.0 ],
					"bubble_outlinecolor" : [ 0.0, 0.0, 0.0, 1.0 ],
					"fontface" : 3,
					"fontname" : "HanziPen TC",
					"fontsize" : 31.0,
					"id" : "obj-15",
					"maxclass" : "comment",
					"numinlets" : 1,
					"numoutlets" : 0,
					"patching_rect" : [ 1157.333367824554443, 42.666667938232422, 416.0, 50.0 ],
					"presentation" : 1,
					"presentation_rect" : [ 774.66668975353241, 143.000004649162292, 388.0, 50.0 ],
					"text" : "Change background color",
					"textcolor" : [ 0.957769274711609, 0.4859459400177, 0.712041139602661, 1.0 ]
				}

			}
, 			{
				"box" : 				{
					"bgmode" : 0,
					"border" : 1,
					"clickthrough" : 0,
					"enablehscroll" : 0,
					"enablevscroll" : 0,
					"extract" : 1,
					"id" : "obj-3",
					"lockeddragscroll" : 0,
					"lockedsize" : 0,
					"maxclass" : "bpatcher",
					"name" : "bp.Sequencer.maxpat",
					"numinlets" : 2,
					"numoutlets" : 2,
					"offset" : [ 0.0, 0.0 ],
					"outlettype" : [ "signal", "signal" ],
					"patching_rect" : [ 40.0, 149.333337783813477, 726.0, 232.0 ],
					"presentation" : 1,
					"presentation_rect" : [ 40.0, 149.333337783813477, 726.0, 232.0 ],
					"varname" : "bp.Sequencer",
					"viewvisibility" : 1
				}

			}
, 			{
				"box" : 				{
					"bgmode" : 0,
					"border" : 1,
					"clickthrough" : 0,
					"enablehscroll" : 0,
					"enablevscroll" : 0,
					"extract" : 1,
					"id" : "obj-2",
					"lockeddragscroll" : 0,
					"lockedsize" : 0,
					"maxclass" : "bpatcher",
					"name" : "bp.Karplus.maxpat",
					"numinlets" : 4,
					"numoutlets" : 1,
					"offset" : [ 0.0, 0.0 ],
					"outlettype" : [ "signal" ],
					"patching_rect" : [ 40.0, 420.000012516975403, 401.0, 116.0 ],
					"presentation" : 1,
					"presentation_rect" : [ 40.0, 427.0, 401.0, 116.0 ],
					"varname" : "bp.Karplus",
					"viewvisibility" : 1
				}

			}
, 			{
				"box" : 				{
					"bgmode" : 0,
					"border" : 0,
					"clickthrough" : 0,
					"enablehscroll" : 0,
					"enablevscroll" : 0,
					"extract" : 1,
					"id" : "obj-8",
					"lockeddragscroll" : 0,
					"lockedsize" : 0,
					"maxclass" : "bpatcher",
					"name" : "bp.LFO2.maxpat",
					"numinlets" : 1,
					"numoutlets" : 2,
					"offset" : [ 0.0, 0.0 ],
					"outlettype" : [ "signal", "signal" ],
					"patching_rect" : [ 481.333347678184509, 426.666679382324219, 170.0, 116.0 ],
					"varname" : "bp.LFO2",
					"viewvisibility" : 1
				}

			}
, 			{
				"box" : 				{
					"bgmode" : 0,
					"border" : 1,
					"clickthrough" : 0,
					"enablehscroll" : 0,
					"enablevscroll" : 0,
					"extract" : 1,
					"id" : "obj-6",
					"lockeddragscroll" : 0,
					"lockedsize" : 0,
					"maxclass" : "bpatcher",
					"name" : "bp.HPF.maxpat",
					"numinlets" : 4,
					"numoutlets" : 1,
					"offset" : [ 0.0, 0.0 ],
					"outlettype" : [ "signal" ],
					"patching_rect" : [ 34.666667699813843, 574.666683793067932, 253.0, 116.0 ],
					"presentation" : 1,
					"presentation_rect" : [ 484.000014424324036, 413.666666269302368, 281.999985575675964, 129.333337187767029 ],
					"varname" : "bp.HPF",
					"viewvisibility" : 1
				}

			}
, 			{
				"box" : 				{
					"bgmode" : 0,
					"border" : 0,
					"clickthrough" : 0,
					"embed" : 1,
					"enablehscroll" : 0,
					"enablevscroll" : 0,
					"id" : "obj-4",
					"lockeddragscroll" : 0,
					"lockedsize" : 0,
					"maxclass" : "bpatcher",
					"numinlets" : 0,
					"numoutlets" : 0,
					"offset" : [ 0.0, 0.0 ],
					"patcher" : 					{
						"fileversion" : 1,
						"appversion" : 						{
							"major" : 8,
							"minor" : 6,
							"revision" : 0,
							"architecture" : "x64",
							"modernui" : 1
						}
,
						"classnamespace" : "box",
						"rect" : [ 278.0, 1025.0, 111.0, 116.0 ],
						"bglocked" : 0,
						"openinpresentation" : 1,
						"default_fontsize" : 12.0,
						"default_fontface" : 0,
						"default_fontname" : "Arial",
						"gridonopen" : 1,
						"gridsize" : [ 15.0, 15.0 ],
						"gridsnaponopen" : 1,
						"objectsnaponopen" : 1,
						"statusbarvisible" : 1,
						"toolbarvisible" : 1,
						"lefttoolbarpinned" : 0,
						"toptoolbarpinned" : 0,
						"righttoolbarpinned" : 0,
						"bottomtoolbarpinned" : 0,
						"toolbars_unpinned_last_save" : 0,
						"tallnewobj" : 0,
						"boxanimatetime" : 200,
						"enablehscroll" : 1,
						"enablevscroll" : 1,
						"devicewidth" : 0.0,
						"description" : "",
						"digest" : "",
						"tags" : "",
						"style" : "",
						"subpatcher_template" : "",
						"assistshowspatchername" : 0,
						"boxes" : [ 							{
								"box" : 								{
									"id" : "obj-3",
									"linecount" : 2,
									"maxclass" : "comment",
									"numinlets" : 1,
									"numoutlets" : 0,
									"patching_rect" : [ 37.0, 99.0, 294.0, 33.0 ],
									"text" : "## Provides access to global transport functions and remembers state and tempo with your patcher ##"
								}

							}
, 							{
								"box" : 								{
									"fontname" : "Arial",
									"fontsize" : 12.0,
									"id" : "obj-6",
									"maxclass" : "message",
									"numinlets" : 2,
									"numoutlets" : 1,
									"outlettype" : [ "" ],
									"patching_rect" : [ 238.5, 297.0, 61.0, 22.0 ],
									"text" : "tempo $1"
								}

							}
, 							{
								"box" : 								{
									"activebgcolor" : [ 0.0, 0.0, 0.0, 1.0 ],
									"fontsize" : 14.0,
									"id" : "obj-129",
									"maxclass" : "live.numbox",
									"numinlets" : 1,
									"numoutlets" : 2,
									"outlettype" : [ "", "float" ],
									"parameter_enable" : 1,
									"patching_rect" : [ 238.5, 246.735229000000004, 97.0, 20.0 ],
									"presentation" : 1,
									"presentation_rect" : [ 4.0, 72.792229000000006, 100.0, 20.0 ],
									"saved_attribute_attributes" : 									{
										"activebgcolor" : 										{
											"expression" : ""
										}
,
										"textcolor" : 										{
											"expression" : ""
										}
,
										"valueof" : 										{
											"parameter_initial" : [ 80 ],
											"parameter_initial_enable" : 1,
											"parameter_linknames" : 1,
											"parameter_longname" : "Tempo",
											"parameter_mmax" : 250.0,
											"parameter_shortname" : "Tempo",
											"parameter_type" : 0,
											"parameter_units" : "bpm",
											"parameter_unitstyle" : 9
										}

									}
,
									"textcolor" : [ 0.278431, 0.839216, 1.0, 1.0 ],
									"varname" : "Tempo"
								}

							}
, 							{
								"box" : 								{
									"fontname" : "Arial",
									"fontsize" : 12.0,
									"id" : "obj-2",
									"maxclass" : "newobj",
									"numinlets" : 2,
									"numoutlets" : 9,
									"outlettype" : [ "int", "int", "float", "float", "float", "", "int", "float", "" ],
									"patching_rect" : [ 195.0, 344.0, 127.0, 22.0 ],
									"text" : "transport"
								}

							}
, 							{
								"box" : 								{
									"activebgcolor" : [ 0.572549, 0.615686, 0.658824, 0.0 ],
									"activebgoncolor" : [ 0.278431, 0.839216, 1.0, 1.0 ],
									"activetextcolor" : [ 1.0, 1.0, 1.0, 0.57 ],
									"activetextoncolor" : [ 0.0, 0.019608, 0.078431, 1.0 ],
									"bgcolor" : [ 0.101961, 0.101961, 0.101961, 0.78 ],
									"bordercolor" : [ 0.0, 0.019608, 0.078431, 0.37 ],
									"id" : "obj-76",
									"maxclass" : "live.text",
									"numinlets" : 1,
									"numoutlets" : 2,
									"outlettype" : [ "", "" ],
									"parameter_enable" : 1,
									"patching_rect" : [ 195.0, 197.5, 62.0, 21.0 ],
									"presentation" : 1,
									"presentation_rect" : [ 4.0, 42.792228999999999, 100.0, 24.0 ],
									"saved_attribute_attributes" : 									{
										"activebgcolor" : 										{
											"expression" : ""
										}
,
										"activebgoncolor" : 										{
											"expression" : ""
										}
,
										"activetextcolor" : 										{
											"expression" : ""
										}
,
										"activetextoncolor" : 										{
											"expression" : ""
										}
,
										"bgcolor" : 										{
											"expression" : ""
										}
,
										"bordercolor" : 										{
											"expression" : ""
										}
,
										"textcolor" : 										{
											"expression" : ""
										}
,
										"valueof" : 										{
											"parameter_defer" : 1,
											"parameter_enum" : [ "val1", "val2" ],
											"parameter_initial" : [ 0.0 ],
											"parameter_initial_enable" : 1,
											"parameter_linknames" : 1,
											"parameter_longname" : "Transport",
											"parameter_mmax" : 1,
											"parameter_shortname" : "Transport",
											"parameter_type" : 2
										}

									}
,
									"text" : "Off",
									"textcolor" : [ 1.0, 1.0, 1.0, 1.0 ],
									"texton" : "On",
									"varname" : "Transport"
								}

							}
, 							{
								"box" : 								{
									"fontname" : "Arial",
									"fontsize" : 12.0,
									"id" : "obj-5",
									"maxclass" : "newobj",
									"numinlets" : 1,
									"numoutlets" : 4,
									"outlettype" : [ "", "", "", "" ],
									"patching_rect" : [ 37.0, 147.160706000000005, 59.5, 22.0 ],
									"restore" : 									{
										"Tempo" : [ 128.0 ],
										"Transport" : [ 1.0 ]
									}
,
									"text" : "autopattr",
									"varname" : "u388007169"
								}

							}
, 							{
								"box" : 								{
									"fontname" : "Arial Bold",
									"fontsize" : 9.0,
									"id" : "obj-13",
									"maxclass" : "comment",
									"numinlets" : 1,
									"numoutlets" : 0,
									"patching_rect" : [ 37.0, 67.907471000000001, 107.0, 17.0 ],
									"presentation" : 1,
									"presentation_rect" : [ 2.0, 19.0, 107.0, 17.0 ],
									"text" : "GLOBAL TRANSPORT",
									"textcolor" : [ 1.0, 1.0, 1.0, 1.0 ]
								}

							}
, 							{
								"box" : 								{
									"angle" : 0.0,
									"background" : 1,
									"bgcolor" : [ 0.137255, 0.145098, 0.160784, 0.65 ],
									"id" : "obj-130",
									"maxclass" : "panel",
									"mode" : 0,
									"numinlets" : 1,
									"numoutlets" : 0,
									"patching_rect" : [ 37.0, 43.711638999999998, 37.0, 5.0 ],
									"presentation" : 1,
									"presentation_rect" : [ 0.0, 37.0, 425.0, 60.338158 ],
									"proportion" : 0.39,
									"rounded" : 0
								}

							}
, 							{
								"box" : 								{
									"angle" : 0.0,
									"background" : 1,
									"bgcolor" : [ 0.367404, 0.389405, 0.430238, 1.0 ],
									"id" : "obj-131",
									"maxclass" : "panel",
									"mode" : 0,
									"numinlets" : 1,
									"numoutlets" : 0,
									"patching_rect" : [ 81.337188999999995, 43.711638999999998, 37.0, 5.0 ],
									"presentation" : 1,
									"presentation_rect" : [ 0.0, 17.0, 425.0, 80.338158000000007 ],
									"proportion" : 0.39,
									"rounded" : 0
								}

							}
, 							{
								"box" : 								{
									"angle" : 0.0,
									"background" : 1,
									"bgcolor" : [ 0.0, 0.0, 0.0, 1.0 ],
									"id" : "obj-135",
									"maxclass" : "panel",
									"mode" : 0,
									"numinlets" : 1,
									"numoutlets" : 0,
									"patching_rect" : [ 124.079284999999999, 43.711638999999998, 37.0, 5.0 ],
									"presentation" : 1,
									"presentation_rect" : [ 0.0, 0.0, 425.0, 133.0 ],
									"proportion" : 0.39,
									"rounded" : 0
								}

							}
 ],
						"lines" : [ 							{
								"patchline" : 								{
									"destination" : [ "obj-6", 0 ],
									"source" : [ "obj-129", 0 ]
								}

							}
, 							{
								"patchline" : 								{
									"destination" : [ "obj-2", 0 ],
									"source" : [ "obj-6", 0 ]
								}

							}
, 							{
								"patchline" : 								{
									"destination" : [ "obj-2", 0 ],
									"source" : [ "obj-76", 0 ]
								}

							}
 ],
						"bgcolor" : [ 1.0, 1.0, 1.0, 0.0 ]
					}
,
					"patching_rect" : [ 744.000022172927856, 426.666679382324219, 111.0, 116.0 ],
					"varname" : "GlobalTransport",
					"viewvisibility" : 1
				}

			}
, 			{
				"box" : 				{
					"bgmode" : 0,
					"border" : 0,
					"clickthrough" : 0,
					"enablehscroll" : 0,
					"enablevscroll" : 0,
					"extract" : 1,
					"id" : "obj-5",
					"lockeddragscroll" : 0,
					"lockedsize" : 0,
					"maxclass" : "bpatcher",
					"name" : "bp.Stereo.maxpat",
					"numinlets" : 2,
					"numoutlets" : 0,
					"offset" : [ 0.0, 0.0 ],
					"patching_rect" : [ 320.000009536743164, 585.0, 148.0, 116.0 ],
					"varname" : "bp.Stereo",
					"viewvisibility" : 1
				}

			}
, 			{
				"box" : 				{
					"attr" : "point_size",
					"id" : "obj-55",
					"maxclass" : "attrui",
					"numinlets" : 1,
					"numoutlets" : 1,
					"outlettype" : [ "" ],
					"parameter_enable" : 0,
					"patching_rect" : [ 1215.833343029022217, 706.666687726974487, 150.0, 22.0 ]
				}

			}
, 			{
				"box" : 				{
					"id" : "obj-51",
					"maxclass" : "number",
					"numinlets" : 1,
					"numoutlets" : 2,
					"outlettype" : [ "", "bang" ],
					"parameter_enable" : 0,
					"patching_rect" : [ 1405.333375215530396, 1040.000030994415283, 50.0, 22.0 ]
				}

			}
, 			{
				"box" : 				{
					"id" : "obj-49",
					"maxclass" : "message",
					"numinlets" : 2,
					"numoutlets" : 1,
					"outlettype" : [ "" ],
					"patching_rect" : [ 1405.333375215530396, 1069.333365201950073, 101.0, 22.0 ],
					"text" : "poly_mode $1 $1"
				}

			}
, 			{
				"box" : 				{
					"id" : "obj-47",
					"maxclass" : "ezadc~",
					"numinlets" : 1,
					"numoutlets" : 2,
					"outlettype" : [ "signal", "signal" ],
					"patching_rect" : [ 970.666695594787598, 354.333344340324402, 45.0, 45.0 ],
					"presentation" : 1,
					"presentation_rect" : [ 274.666674852371216, 16.000000476837158, 106.666669845581055, 106.666669845581055 ]
				}

			}
, 			{
				"box" : 				{
					"annotation" : "## Convert audio envelope input to VIZZIE data ##",
					"bgmode" : 1,
					"border" : 1,
					"clickthrough" : 0,
					"enablehscroll" : 0,
					"enablevscroll" : 0,
					"id" : "obj-25",
					"lockeddragscroll" : 0,
					"lockedsize" : 0,
					"maxclass" : "bpatcher",
					"name" : "vz.followr.maxpat",
					"numinlets" : 2,
					"numoutlets" : 3,
					"offset" : [ 0.0, 0.0 ],
					"outlettype" : [ "", "", "" ],
					"patching_rect" : [ 970.666695594787598, 411.666679382324219, 208.0, 146.0 ],
					"presentation" : 1,
					"presentation_rect" : [ 804.0000239610672, 397.000003457069397, 208.0, 146.0 ],
					"prototypename" : "pixl",
					"varname" : "followr",
					"viewvisibility" : 1
				}

			}
, 			{
				"box" : 				{
					"id" : "obj-46",
					"maxclass" : "comment",
					"numinlets" : 1,
					"numoutlets" : 0,
					"patching_rect" : [ 1337.333373188972473, 1048.000031232833862, 19.0, 20.0 ],
					"text" : "z"
				}

			}
, 			{
				"box" : 				{
					"id" : "obj-45",
					"maxclass" : "comment",
					"numinlets" : 1,
					"numoutlets" : 0,
					"patching_rect" : [ 1289.333371758460999, 1048.000031232833862, 19.0, 20.0 ],
					"text" : "y"
				}

			}
, 			{
				"box" : 				{
					"id" : "obj-44",
					"maxclass" : "comment",
					"numinlets" : 1,
					"numoutlets" : 0,
					"patching_rect" : [ 1241.333370327949524, 1048.000031232833862, 19.0, 20.0 ],
					"text" : "x"
				}

			}
, 			{
				"box" : 				{
					"id" : "obj-40",
					"maxclass" : "message",
					"numinlets" : 2,
					"numoutlets" : 1,
					"outlettype" : [ "" ],
					"patching_rect" : [ 1114.666699886322021, 1069.333365201950073, 51.0, 22.0 ],
					"text" : "getcolor"
				}

			}
, 			{
				"box" : 				{
					"id" : "obj-37",
					"maxclass" : "message",
					"numinlets" : 2,
					"numoutlets" : 1,
					"outlettype" : [ "" ],
					"patching_rect" : [ 536.0, 582.0, 88.0, 22.0 ],
					"text" : "geterase_color"
				}

			}
, 			{
				"box" : 				{
					"id" : "obj-32",
					"maxclass" : "newobj",
					"numinlets" : 1,
					"numoutlets" : 2,
					"outlettype" : [ "", "" ],
					"patching_rect" : [ 566.666683554649353, 1022.666697144508362, 155.0, 22.0 ],
					"text" : "jit.gl.handle @auto_rotate 1"
				}

			}
, 			{
				"box" : 				{
					"format" : 6,
					"id" : "obj-30",
					"maxclass" : "flonum",
					"numinlets" : 1,
					"numoutlets" : 2,
					"outlettype" : [ "", "bang" ],
					"parameter_enable" : 0,
					"patching_rect" : [ 1088.000032424926758, 778.999809878717997, 50.0, 22.0 ]
				}

			}
, 			{
				"box" : 				{
					"format" : 6,
					"id" : "obj-29",
					"maxclass" : "flonum",
					"numinlets" : 1,
					"numoutlets" : 2,
					"outlettype" : [ "", "bang" ],
					"parameter_enable" : 0,
					"patching_rect" : [ 1032.000030755996704, 778.999809878717997, 50.0, 22.0 ]
				}

			}
, 			{
				"box" : 				{
					"format" : 6,
					"id" : "obj-28",
					"maxclass" : "flonum",
					"numinlets" : 1,
					"numoutlets" : 2,
					"outlettype" : [ "", "bang" ],
					"parameter_enable" : 0,
					"patching_rect" : [ 976.00002908706665, 778.999809878717997, 50.0, 22.0 ]
				}

			}
, 			{
				"box" : 				{
					"id" : "obj-26",
					"maxclass" : "newobj",
					"numinlets" : 4,
					"numoutlets" : 1,
					"outlettype" : [ "" ],
					"patching_rect" : [ 945.333361506462097, 814.999810951601603, 113.0, 22.0 ],
					"text" : "pak position 0. 0. 0."
				}

			}
, 			{
				"box" : 				{
					"bubble" : 1,
					"id" : "obj-24",
					"maxclass" : "comment",
					"numinlets" : 1,
					"numoutlets" : 0,
					"patching_rect" : [ 856.000025510787964, 778.999809878717997, 113.0, 24.0 ],
					"text" : "default scale = 1"
				}

			}
, 			{
				"box" : 				{
					"format" : 6,
					"id" : "obj-23",
					"maxclass" : "flonum",
					"numinlets" : 1,
					"numoutlets" : 2,
					"outlettype" : [ "", "bang" ],
					"parameter_enable" : 0,
					"patching_rect" : [ 800.00002384185791, 781.666476624857523, 50.0, 22.0 ]
				}

			}
, 			{
				"box" : 				{
					"id" : "obj-21",
					"maxclass" : "message",
					"numinlets" : 2,
					"numoutlets" : 1,
					"outlettype" : [ "" ],
					"patching_rect" : [ 800.00002384185791, 806.999810713183024, 53.0, 22.0 ],
					"text" : "scale $1"
				}

			}
, 			{
				"box" : 				{
					"id" : "obj-12",
					"maxclass" : "newobj",
					"numinlets" : 1,
					"numoutlets" : 2,
					"outlettype" : [ "jit_matrix", "" ],
					"patching_rect" : [ 826.666691303253174, 1100.000032782554626, 703.0, 22.0 ],
					"text" : "jit.gl.gridshape myWorld @lighting_enable 1 @smooth_shading 1 @dim 20 20 @color 0.989632 0.456993 0.439495 1. @scale 0.5"
				}

			}
, 			{
				"box" : 				{
					"fontface" : 0,
					"fontname" : "Arial",
					"fontsize" : 12.0,
					"id" : "obj-7",
					"maxclass" : "jit.fpsgui",
					"numinlets" : 1,
					"numoutlets" : 2,
					"outlettype" : [ "", "" ],
					"patching_rect" : [ 920.0, 662.0, 80.0, 35.0 ]
				}

			}
, 			{
				"box" : 				{
					"id" : "obj-1",
					"maxclass" : "newobj",
					"numinlets" : 1,
					"numoutlets" : 3,
					"outlettype" : [ "jit_matrix", "bang", "" ],
					"patching_rect" : [ 626.0, 632.0, 609.0, 22.0 ],
					"text" : "jit.world myWorld @floating 1 @size 320 240 @enable 1 @fsaa 1 @erase_color 0.339622 0.755892 0.659795 1."
				}

			}
, 			{
				"box" : 				{
					"attr" : "drawto",
					"id" : "obj-13",
					"maxclass" : "attrui",
					"numinlets" : 1,
					"numoutlets" : 1,
					"outlettype" : [ "" ],
					"parameter_enable" : 0,
					"patching_rect" : [ 577.333350539207458, 810.999810832392313, 214.042557656764984, 22.0 ]
				}

			}
, 			{
				"box" : 				{
					"attr" : "name",
					"id" : "obj-14",
					"maxclass" : "attrui",
					"numinlets" : 1,
					"numoutlets" : 1,
					"outlettype" : [ "" ],
					"parameter_enable" : 0,
					"patching_rect" : [ 626.0, 604.0, 212.765961885452271, 22.0 ]
				}

			}
, 			{
				"box" : 				{
					"attr" : "shape",
					"id" : "obj-18",
					"maxclass" : "attrui",
					"numinlets" : 1,
					"numoutlets" : 1,
					"outlettype" : [ "" ],
					"parameter_enable" : 0,
					"patching_rect" : [ 577.333350539207458, 785.666476744066813, 150.0, 22.0 ],
					"presentation" : 1,
					"presentation_rect" : [ 818.666691064834595, 356.00001060962677, 216.000005185604095, 22.0 ],
					"text_width" : 72.995784789323807
				}

			}
, 			{
				"box" : 				{
					"attr" : "erase_color",
					"attr_display" : 1,
					"id" : "obj-31",
					"maxclass" : "attrui",
					"numinlets" : 1,
					"numoutlets" : 1,
					"outlettype" : [ "" ],
					"parameter_enable" : 0,
					"patching_rect" : [ 842.0, 604.0, 150.0, 22.0 ],
					"presentation" : 1,
					"presentation_rect" : [ 818.666689813137054, 195.000004649162292, 222.666661858558655, 22.0 ]
				}

			}
, 			{
				"box" : 				{
					"attr" : "gl_color",
					"attr_display" : 1,
					"id" : "obj-35",
					"maxclass" : "attrui",
					"numinlets" : 1,
					"numoutlets" : 1,
					"outlettype" : [ "" ],
					"parameter_enable" : 0,
					"patching_rect" : [ 949.333361625671387, 1069.333365201950073, 150.0, 22.0 ],
					"presentation" : 1,
					"presentation_rect" : [ 818.666689813137054, 278.666673421859741, 216.000006437301636, 22.0 ],
					"text_width" : 79.411764472723007
				}

			}
, 			{
				"box" : 				{
					"attr" : "scale",
					"id" : "obj-42",
					"maxclass" : "attrui",
					"numinlets" : 1,
					"numoutlets" : 1,
					"outlettype" : [ "" ],
					"parameter_enable" : 0,
					"patching_rect" : [ 1169.333368182182312, 1069.333365201950073, 205.809131145477295, 22.0 ],
					"text_width" : 58.506224781274796
				}

			}
, 			{
				"box" : 				{
					"attr" : "line_width",
					"id" : "obj-54",
					"maxclass" : "attrui",
					"numinlets" : 1,
					"numoutlets" : 1,
					"outlettype" : [ "" ],
					"parameter_enable" : 0,
					"patching_rect" : [ 1215.833343029022217, 741.33335542678833, 150.0, 22.0 ]
				}

			}
, 			{
				"box" : 				{
					"autofit" : 1,
					"forceaspect" : 1,
					"id" : "obj-22",
					"maxclass" : "fpic",
					"numinlets" : 1,
					"numoutlets" : 1,
					"outlettype" : [ "jit_matrix" ],
					"patching_rect" : [ 348.000010371208191, 781.666476624857523, 100.0, 70.667046750285067 ],
					"pic" : "/Users/jazlinrodriguez/Downloads/donuts2.jpeg",
					"presentation" : 1,
					"presentation_rect" : [ -30.0, -20.0, 1420.000042319297791, 1003.472093759845961 ]
				}

			}
 ],
		"lines" : [ 			{
				"patchline" : 				{
					"destination" : [ "obj-7", 0 ],
					"source" : [ "obj-1", 1 ]
				}

			}
, 			{
				"patchline" : 				{
					"destination" : [ "obj-12", 0 ],
					"source" : [ "obj-13", 0 ]
				}

			}
, 			{
				"patchline" : 				{
					"destination" : [ "obj-1", 0 ],
					"source" : [ "obj-14", 0 ]
				}

			}
, 			{
				"patchline" : 				{
					"destination" : [ "obj-12", 0 ],
					"source" : [ "obj-18", 0 ]
				}

			}
, 			{
				"patchline" : 				{
					"destination" : [ "obj-6", 0 ],
					"source" : [ "obj-2", 0 ]
				}

			}
, 			{
				"patchline" : 				{
					"destination" : [ "obj-12", 0 ],
					"source" : [ "obj-21", 0 ]
				}

			}
, 			{
				"patchline" : 				{
					"destination" : [ "obj-21", 0 ],
					"source" : [ "obj-23", 0 ]
				}

			}
, 			{
				"patchline" : 				{
					"destination" : [ "obj-23", 0 ],
					"source" : [ "obj-25", 0 ]
				}

			}
, 			{
				"patchline" : 				{
					"destination" : [ "obj-12", 0 ],
					"source" : [ "obj-26", 0 ]
				}

			}
, 			{
				"patchline" : 				{
					"destination" : [ "obj-26", 1 ],
					"source" : [ "obj-28", 0 ]
				}

			}
, 			{
				"patchline" : 				{
					"destination" : [ "obj-26", 2 ],
					"source" : [ "obj-29", 0 ]
				}

			}
, 			{
				"patchline" : 				{
					"destination" : [ "obj-2", 0 ],
					"midpoints" : [ 756.5, 414.0, 49.5, 414.0 ],
					"source" : [ "obj-3", 1 ]
				}

			}
, 			{
				"patchline" : 				{
					"destination" : [ "obj-2", 1 ],
					"midpoints" : [ 49.5, 414.0, 176.833333333333314, 414.0 ],
					"source" : [ "obj-3", 0 ]
				}

			}
, 			{
				"patchline" : 				{
					"destination" : [ "obj-26", 3 ],
					"source" : [ "obj-30", 0 ]
				}

			}
, 			{
				"patchline" : 				{
					"destination" : [ "obj-1", 0 ],
					"source" : [ "obj-31", 0 ]
				}

			}
, 			{
				"patchline" : 				{
					"destination" : [ "obj-12", 0 ],
					"source" : [ "obj-32", 0 ]
				}

			}
, 			{
				"patchline" : 				{
					"destination" : [ "obj-12", 0 ],
					"source" : [ "obj-35", 0 ]
				}

			}
, 			{
				"patchline" : 				{
					"destination" : [ "obj-1", 0 ],
					"source" : [ "obj-37", 0 ]
				}

			}
, 			{
				"patchline" : 				{
					"destination" : [ "obj-12", 0 ],
					"source" : [ "obj-40", 0 ]
				}

			}
, 			{
				"patchline" : 				{
					"destination" : [ "obj-12", 0 ],
					"source" : [ "obj-42", 0 ]
				}

			}
, 			{
				"patchline" : 				{
					"destination" : [ "obj-25", 0 ],
					"source" : [ "obj-47", 0 ]
				}

			}
, 			{
				"patchline" : 				{
					"destination" : [ "obj-12", 0 ],
					"source" : [ "obj-49", 0 ]
				}

			}
, 			{
				"patchline" : 				{
					"destination" : [ "obj-49", 0 ],
					"source" : [ "obj-51", 0 ]
				}

			}
, 			{
				"patchline" : 				{
					"destination" : [ "obj-12", 0 ],
					"source" : [ "obj-54", 0 ]
				}

			}
, 			{
				"patchline" : 				{
					"destination" : [ "obj-12", 0 ],
					"source" : [ "obj-55", 0 ]
				}

			}
, 			{
				"patchline" : 				{
					"destination" : [ "obj-5", 1 ],
					"midpoints" : [ 44.166667699813843, 896.0, 458.500009536743164, 896.0 ],
					"order" : 0,
					"source" : [ "obj-6", 0 ]
				}

			}
, 			{
				"patchline" : 				{
					"destination" : [ "obj-5", 0 ],
					"midpoints" : [ 44.166667699813843, 848.0, 329.500009536743164, 848.0 ],
					"order" : 1,
					"source" : [ "obj-6", 0 ]
				}

			}
, 			{
				"patchline" : 				{
					"destination" : [ "obj-6", 2 ],
					"midpoints" : [ 641.833347678184509, 716.0, 200.166667699813843, 716.0 ],
					"source" : [ "obj-8", 1 ]
				}

			}
, 			{
				"patchline" : 				{
					"destination" : [ "obj-6", 1 ],
					"midpoints" : [ 490.833347678184509, 716.0, 122.166667699813843, 716.0 ],
					"source" : [ "obj-8", 0 ]
				}

			}
 ],
		"parameters" : 		{
			"obj-25::obj-105" : [ "Gain", "Gain", 0 ],
			"obj-25::obj-12" : [ "range[1]", "range", 0 ],
			"obj-25::obj-25" : [ "pictctrl[210]", "pictctrl[1]", 0 ],
			"obj-25::obj-38" : [ "pictctrl[209]", "pictctrl[1]", 0 ],
			"obj-25::obj-52" : [ "pictctrl[208]", "pictctrl[1]", 0 ],
			"obj-25::obj-93" : [ "pictctrl[204]", "pictctrl[1]", 0 ],
			"obj-2::obj-12" : [ "Mute[3]", "Mute", 0 ],
			"obj-2::obj-22" : [ "DecayCV", "CV", 0 ],
			"obj-2::obj-28" : [ "Dampen", "Dampen", 0 ],
			"obj-2::obj-42" : [ "Impulse", "Impulse", 0 ],
			"obj-2::obj-51" : [ "Freq[2]", "Freq", 0 ],
			"obj-2::obj-57" : [ "Decay", "Decay", 0 ],
			"obj-2::obj-65" : [ "FreqMode[1]", "FreqMode", 1 ],
			"obj-2::obj-66" : [ "Offset[1]", "Offset", 0 ],
			"obj-2::obj-92" : [ "DampenCV", "CV", 0 ],
			"obj-3::obj-120" : [ "Max pulse[1]", "Max pulse", 0 ],
			"obj-3::obj-125" : [ "NoteGrid", "NoteGrid", 0 ],
			"obj-3::obj-130" : [ "mute", "mute", 0 ],
			"obj-3::obj-155" : [ "Swing amount", "Swing amount", 0 ],
			"obj-3::obj-157" : [ "Swing enable", "Swing enable", 0 ],
			"obj-3::obj-185" : [ "Sequence", "Sequence", 0 ],
			"obj-3::obj-2" : [ "trans_trig", "trans_trig", 0 ],
			"obj-3::obj-22" : [ "Pattern", "Pattern", 0 ],
			"obj-3::obj-25" : [ "GateTime", "GateTime", 0 ],
			"obj-3::obj-28" : [ "Sync", "Sync", 0 ],
			"obj-3::obj-4" : [ "live.text", "live.text", 0 ],
			"obj-3::obj-89" : [ "Reset", "Reset", 0 ],
			"obj-3::obj-95" : [ "Steps", "Steps", 0 ],
			"obj-3::obj-96" : [ "Pulse", "Pulse", 0 ],
			"obj-4::obj-129" : [ "Tempo", "Tempo", 0 ],
			"obj-4::obj-76" : [ "Transport", "Transport", 0 ],
			"obj-5::obj-22" : [ "Mute", "Mute", 0 ],
			"obj-5::obj-52" : [ "Level", "Level", 0 ],
			"obj-5::obj-55" : [ "Bypass", "DSP", 0 ],
			"obj-5::obj-56" : [ "OutputChannel", "OutputChannel", 0 ],
			"obj-6::obj-102" : [ "CV1", "CV1", 0 ],
			"obj-6::obj-103" : [ "CV2", "CV2", 0 ],
			"obj-6::obj-11" : [ "Res", "Res", 0 ],
			"obj-6::obj-2" : [ "Freq", "Freq", 0 ],
			"obj-6::obj-55" : [ "power", "power", 0 ],
			"obj-6::obj-68" : [ "CV3", "CV3", 0 ],
			"obj-6::obj-7" : [ "Offset", "Offset", 0 ],
			"obj-6::obj-80" : [ "FreqMode", "FreqMode", 0 ],
			"obj-8::obj-12" : [ "Mute[2]", "Mute", 0 ],
			"obj-8::obj-144" : [ "Phase", "Phase", 0 ],
			"obj-8::obj-74" : [ "Rate", "Rate", 0 ],
			"obj-8::obj-75" : [ "Shape", "Shape", 0 ],
			"obj-8::obj-81" : [ "Phase-Inversion", "Phase-Inversion", 1 ],
			"obj-8::obj-88" : [ "Time Mode", "Time Mode", 1 ],
			"obj-8::obj-89" : [ "SyncRate", "Rate", 0 ],
			"obj-8::obj-94" : [ "Re-Trigger", "Re-Trigger", 0 ],
			"parameterbanks" : 			{

			}
,
			"parameter_overrides" : 			{
				"obj-2::obj-12" : 				{
					"parameter_longname" : "Mute[3]"
				}
,
				"obj-2::obj-51" : 				{
					"parameter_longname" : "Freq[2]"
				}
,
				"obj-2::obj-65" : 				{
					"parameter_longname" : "FreqMode[1]"
				}
,
				"obj-2::obj-66" : 				{
					"parameter_longname" : "Offset[1]"
				}
,
				"obj-5::obj-55" : 				{
					"parameter_longname" : "Bypass"
				}
,
				"obj-8::obj-12" : 				{
					"parameter_longname" : "Mute[2]"
				}

			}
,
			"inherited_shortname" : 1
		}
,
		"dependency_cache" : [ 			{
				"name" : "bp.HPF.maxpat",
				"bootpath" : "C74:/packages/BEAP/clippings/BEAP/Filter",
				"type" : "JSON",
				"implicit" : 1
			}
, 			{
				"name" : "bp.Karplus.maxpat",
				"bootpath" : "C74:/packages/BEAP/clippings/BEAP/Oscillator",
				"type" : "JSON",
				"implicit" : 1
			}
, 			{
				"name" : "bp.LFO2.maxpat",
				"bootpath" : "C74:/packages/BEAP/clippings/BEAP/LFO",
				"type" : "JSON",
				"implicit" : 1
			}
, 			{
				"name" : "bp.Sequencer.maxpat",
				"bootpath" : "C74:/packages/BEAP/clippings/BEAP/Sequencer",
				"type" : "JSON",
				"implicit" : 1
			}
, 			{
				"name" : "bp.Stereo.maxpat",
				"bootpath" : "C74:/packages/BEAP/clippings/BEAP/Output",
				"type" : "JSON",
				"implicit" : 1
			}
, 			{
				"name" : "data-handler.maxpat",
				"bootpath" : "C74:/packages/Vizzie/patchers/utils",
				"type" : "JSON",
				"implicit" : 1
			}
, 			{
				"name" : "donuts2.jpeg",
				"bootpath" : "~/Downloads",
				"patcherrelativepath" : "../../../Downloads",
				"type" : "JPEG",
				"implicit" : 1
			}
, 			{
				"name" : "swingCalc.js",
				"bootpath" : "C74:/packages/BEAP/misc",
				"type" : "TEXT",
				"implicit" : 1
			}
, 			{
				"name" : "vizzie-datatexconvert.js",
				"bootpath" : "C74:/packages/Vizzie/code",
				"type" : "TEXT",
				"implicit" : 1
			}
, 			{
				"name" : "vz.followr.maxpat",
				"bootpath" : "C74:/packages/Vizzie/patchers",
				"type" : "JSON",
				"implicit" : 1
			}
 ],
		"autosave" : 0
	}

}
